Coordinates
version=1
nRows=12
nColumns=24
inDegrees=yes

Units are S.I. units (second, meters, Newtons, ...)
Angles are in degrees.

endheader
time	pelvis_tilt	pelvis_list	pelvis_rotation	pelvis_tx	pelvis_ty	pelvis_tz	hip_flexion_r	hip_adduction_r	hip_rotation_r	knee_angle_r	ankle_angle_r	subtalar_angle_r	mtp_angle_r	hip_flexion_l	hip_adduction_l	hip_rotation_l	knee_angle_l	ankle_angle_l	subtalar_angle_l	mtp_angle_l	lumbar_extension	lumbar_bending	lumbar_rotation
      0.58300000	      0.54705603	      1.39772667	      8.95137446	     -0.83105689	      1.00638636	      0.33226267	     22.40486609	     -2.51024216	    -11.95508310	      4.61492435	      2.38657983	      0.12165361	      3.87846500	    -16.43383323	      4.79438355	     13.25593644	     -6.15879576	     15.74727327	     -7.90804142	     -3.44710798	     -5.64042142	     -3.62728355	     -7.88674969
      0.58716667	      0.60143261	      1.21761547	      9.04174680	     -0.82513473	      1.00576770	      0.33214820	     22.47456085	     -2.29026143	    -11.95235488	      3.88185097	      2.49073361	     -0.13844748	      3.88979761	    -16.63721253	      4.56549580	     13.26515266	     -6.54098632	     15.88287549	     -7.94402739	     -3.44848173	     -5.60668121	     -3.38123329	     -7.92887088
      0.59133333	      0.63755086	      1.02666828	      9.13569555	     -0.81914847	      1.00514247	      0.33204524	     22.55163465	     -2.06034071	    -11.89435212	      3.13514579	      2.49650593	     -0.52338648	      3.94364591	    -16.78620259	      4.32206360	     13.13117269	     -6.99875242	     16.13807635	     -7.65897284	     -3.46092501	     -5.56131731	     -3.12923076	     -8.14150671
      0.59550000	      0.68459996	      0.83220665	      9.20784554	     -0.81310867	      1.00455246	      0.33197536	     22.61649301	     -1.81631879	    -11.78702066	      2.35896805	      2.48498218	     -0.93675532	      4.00270233	    -16.96245496	      4.08154376	     13.05282868	     -7.42376002	     16.30836425	     -7.52746533	     -3.46944313	     -5.50314108	     -2.86755620	     -8.20105429
      0.59966667	      0.75775671	      0.64257282	      9.29444616	     -0.80705188	      1.00401996	      0.33189341	     22.63278733	     -1.57368005	    -11.63827880	      1.60425791	      2.35387300	     -1.47886826	      4.08644823	    -17.14113286	      3.83889044	     12.92578294	     -7.90962449	     16.45740734	     -7.36496777	     -3.47601595	     -5.48841652	     -2.61708189	     -8.31548213
      0.60383333	      0.82021266	      0.44251318	      9.36989303	     -0.80093726	      1.00350478	      0.33182783	     22.68431516	     -1.32378771	    -11.57207139	      0.77786415	      2.30924565	     -1.80486486	      4.10760012	    -17.32337682	      3.59474058	     12.89272044	     -8.35881765	     16.49960759	     -7.40611662	     -3.47552658	     -5.46381890	     -2.36728285	     -8.34374645
      0.60800000	      0.88215532	      0.23321485	      9.42934905	     -0.79472200	      1.00299153	      0.33182773	     22.66296982	     -1.03092135	    -11.18543572	      0.11152282	      1.91646182	     -2.72519301	      4.20567937	    -17.49056940	      3.33295933	     12.71381083	     -8.84160978	     16.65566182	     -7.12132309	     -3.46112156	     -5.37647307	     -2.06922279	     -8.51803155
      0.61216667	      0.96728544	      0.05251256	      9.49953538	     -0.78856075	      1.00255365	      0.33184226	     22.63277619	     -0.76881741	    -10.87799653	     -0.59315284	      1.53517804	     -3.52026289	      4.33882233	    -17.65424186	      3.09675579	     12.53284471	     -9.38369862	     16.73721251	     -6.92128657	     -3.43484559	     -5.36870117	     -1.84624719	     -8.58674850
      0.61633333	      1.02222884	     -0.14546774	      9.56610311	     -0.78231845	      1.00210405	      0.33188168	     22.62592954	     -0.48604416	    -10.53867414	     -1.27810634	      1.09189552	     -4.34280025	      4.49016977	    -17.78243946	      2.84811960	     12.38078786	     -9.93051677	     16.79509305	     -6.74347463	     -3.39285524	     -5.30083629	     -1.60021653	     -8.68046599
      0.62050000	      1.10118570	     -0.34854384	      9.62477867	     -0.77602235	      1.00171464	      0.33195305	     22.57967241	     -0.18354588	    -10.16382615	     -1.92777817	      0.55690266	     -5.23215596	      4.64864258	    -17.93402143	      2.58868456	     12.20999821	    -10.48174451	     16.80548170	     -6.58018689	     -3.33439626	     -5.25446585	     -1.34329024	     -8.76570094
      0.62466667	      1.18135890	     -0.55058521	      9.68002184	     -0.76971437	      1.00135018	      0.33206794	     22.52517276	      0.12723009	     -9.75165618	     -2.55033662	     -0.05117762	     -6.16780312	      4.82425791	    -18.07778964	      2.32717368	     12.03420930	    -11.05036492	     16.79933209	     -6.39355817	     -3.25422757	     -5.20866044	     -1.09514624	     -8.84640070
      0.62883333	      1.23855372	     -0.74728859	      9.73426198	     -0.76336844	      1.00100045	      0.33221190	     22.49002765	      0.43414228	     -9.32381360	     -3.15768318	     -0.72609222	     -7.12432329	      5.00657708	    -18.18046105	      2.07452702	     11.85794850	    -11.64808481	     16.75295757	     -6.21074530	     -3.15320349	     -5.12874639	     -0.85944509	     -8.92839405
